<svg xmlns="http://www.w3.org/2000/svg" viewBox="0 0 57.33 57.33"><defs><style>.cls-1{isolation:isolate;}.cls-2,.cls-4{fill:#cbc2f6;}.cls-3{fill:none;}.cls-4{mix-blend-mode:multiply;}.cls-5{fill:#fcbee1;}.cls-6{fill:#b87bc8;}</style></defs><title>art</title><g class="cls-1"><g id="Layer_2" data-name="Layer 2"><g id="Oeuvres_d_art" data-name="Oeuvres d&apos;art"><circle class="cls-2" cx="28.66" cy="28.66" r="28.66"/><path class="cls-3" d="M12.52,41,21,40.4l-7.09-8.65,1.6-2.3-4-4.58L35.14,22.2,44.6,16.8,57.26,30.56c0-.63.07-1.26.07-1.9A28.66,28.66,0,1,0,28.6,57.33Z"/><path class="cls-4" d="M35.14,22.2,11.57,24.87l4,4.58-1.6,2.3L21,40.4,12.52,41,28.6,57.33h.06A28.66,28.66,0,0,0,57.26,30.56L44.6,16.8ZM23.51,41.4l0,0Z"/><path class="cls-5" d="M11.46,24.56c-.85-7.28,6.25-10.94,15.95-12.36S45.71,14.74,46.63,21,40.44,33.6,30.74,35c-7.18,1.05-17.54-1.15-16.83-3.9.6-2.35,5-1.86,4.28-4.2C17.6,24.94,11.71,26.73,11.46,24.56ZM24,31.73a2.44,2.44,0,1,0-2.8-2.06A2.46,2.46,0,0,0,24,31.73Z"/><path class="cls-6" d="M43.15,42.85c2,0,5.17-3.09,5.17-3.09s-3.33.73-4.59-.59-2.44,0-3.39.49a.56.56,0,0,1-.19,0,.22.22,0,0,0-.22.22V41a.22.22,0,0,0,.23.21h.06C41.17,41.92,41.59,42.87,43.15,42.85Z"/><path class="cls-5" d="M40.22,39.81c0-.1-.14-.19-.31-.21l-.52-.05a.27.27,0,0,0-.27-.13l-26,.69a.65.65,0,0,0,0,1.3l26,.06a.3.3,0,0,0,.22-.08l.56-.07c.17,0,.31-.12.3-.21Z"/><ellipse class="cls-6" cx="34.89" cy="15.92" rx="1.9" ry="2.34" transform="translate(11.39 46.24) rotate(-76.74)"/><ellipse class="cls-6" cx="41.83" cy="19.92" rx="1.98" ry="2.43" transform="translate(-2.86 32.12) rotate(-40.73)"/><ellipse class="cls-6" cx="39.76" cy="27.29" rx="2.48" ry="2.02" transform="translate(-7.09 38.69) rotate(-48.15)"/><ellipse class="cls-6" cx="26.51" cy="15.92" rx="2.22" ry="1.8" transform="translate(-2.61 5.52) rotate(-11.32)"/><ellipse class="cls-6" cx="18.91" cy="18.61" rx="2.22" ry="1.8" transform="translate(-3.29 4.07) rotate(-11.32)"/></g></g></g></svg>