<svg xmlns="http://www.w3.org/2000/svg" viewBox="0 0 57.33 57.33"><defs><style>.cls-1{isolation:isolate;}.cls-2,.cls-4{fill:#cbc2f6;}.cls-3,.cls-7{fill:none;}.cls-4{mix-blend-mode:multiply;}.cls-5{fill:#fcbee1;}.cls-6{fill:#b87bc8;}.cls-7{stroke:#b87bc8;stroke-miterlimit:10;stroke-width:0.5px;}</style></defs><title>cartes</title><g class="cls-1"><g id="Layer_2" data-name="Layer 2"><g id="Cartes_à_jouer" data-name="Cartes à jouer"><circle class="cls-2" cx="28.66" cy="28.66" r="28.66"/><path class="cls-3" d="M12,45.14l8.52-7.47.11-19.33L45.2,10.83,56.47,21.71A28.66,28.66,0,1,0,24.58,57Z"/><path class="cls-4" d="M20.59,18.34l-.11,19.33L12,45.14,24.58,57a28.67,28.67,0,0,0,31.9-35.32L45.2,10.83Z"/><path class="cls-5" d="M30.36,15.76H13a1.51,1.51,0,0,0-1.51,1.51V44A1.51,1.51,0,0,0,13,45.55H30.36A1.51,1.51,0,0,0,31.87,44V17.27a1.51,1.51,0,0,0-1.51-1.51Z"/><circle class="cls-6" cx="21.68" cy="30.65" r="6.59"/><circle class="cls-6" cx="21.68" cy="30.65" r="5.24"/><polygon class="cls-6" points="23.83 24.43 25.62 23.02 25.37 25.2 24.45 25.41 23.83 24.43"/><polygon class="cls-6" points="16.86 35.14 16.44 37.07 18.36 36.11 17.73 35.14 16.86 35.14"/><polygon class="cls-6" points="15.89 27.5 14.55 24.61 18.22 25.41 16.27 27.72 15.89 27.5"/><path class="cls-6" d="M30.36,16.26a1,1,0,0,1,1,1V44a1,1,0,0,1-1,1H13a1,1,0,0,1-1-1V17.27a1,1,0,0,1,1-1H30.36m0-.5H13a1.51,1.51,0,0,0-1.51,1.51V44A1.51,1.51,0,0,0,13,45.55H30.36A1.51,1.51,0,0,0,31.87,44V17.27a1.51,1.51,0,0,0-1.51-1.51Z"/><path class="cls-6" d="M25.62,41.19a.9.9,0,1,1-.9.9.9.9,0,0,1,.9-.9m0-.5a1.4,1.4,0,1,0,1.4,1.4,1.4,1.4,0,0,0-1.4-1.4Z"/><path class="cls-6" d="M29.4,39.48a.47.47,0,1,1-.47.47.47.47,0,0,1,.47-.47m0-.38a.85.85,0,1,0,.85.85.85.85,0,0,0-.85-.85Z"/><path class="cls-6" d="M19.21,18.24a.9.9,0,1,1-.9.9.9.9,0,0,1,.9-.9m0-.5a1.4,1.4,0,1,0,1.4,1.4,1.4,1.4,0,0,0-1.4-1.4Z"/><path class="cls-6" d="M14.55,18.67a.47.47,0,1,1-.47.47.47.47,0,0,1,.47-.47m0-.38a.85.85,0,1,0,.85.85.85.85,0,0,0-.85-.85Z"/><path class="cls-5" d="M17.52,31.4a4.08,4.08,0,0,1,1.42-3.13,4,4,0,0,1,3.35-.91,3.34,3.34,0,0,1,2.5,2.41,2.94,2.94,0,0,1-.07,1.82,2.76,2.76,0,0,1-1.2,1.4,2.69,2.69,0,0,1-1.84.32,2.3,2.3,0,0,1-1.53-1.12,2.13,2.13,0,0,1-.1-1.92,1.89,1.89,0,0,1,1.61-1.06,1.55,1.55,0,0,1,1.56,1.1,1.37,1.37,0,0,1-.08,1,1.2,1.2,0,0,1-.78.62,1,1,0,0,1-1-.21,1,1,0,0,1-.3-.92.76.76,0,0,1,.73-.57.58.58,0,0,1,.6.61h-.05a.49.49,0,0,0-.54-.46.58.58,0,0,0-.51.48.7.7,0,0,0,.26.65.72.72,0,0,0,.68.1.88.88,0,0,0,.52-.46,1,1,0,0,0,0-.7,1.08,1.08,0,0,0-1.12-.73,1.37,1.37,0,0,0-1.16.79A1.64,1.64,0,0,0,20.6,32a1.83,1.83,0,0,0,1.19.92,2.27,2.27,0,0,0,1.54-.24,2.38,2.38,0,0,0,1.06-1.18,2.6,2.6,0,0,0,.09-1.61,3,3,0,0,0-2.24-2.24,3.83,3.83,0,0,0-3.2.78,4,4,0,0,0-1.46,3Z"/><path class="cls-5" d="M44.33,10.51H27A1.51,1.51,0,0,0,25.45,12V38.79A1.51,1.51,0,0,0,27,40.3H44.33a1.51,1.51,0,0,0,1.51-1.51V12a1.51,1.51,0,0,0-1.51-1.51Z"/><line class="cls-7" x1="26.91" y1="10.79" x2="44.22" y2="40.08"/><circle class="cls-6" cx="35.65" cy="25.41" r="6.59"/><circle class="cls-6" cx="35.65" cy="25.41" r="5.24"/><path class="cls-6" d="M44.33,11a1,1,0,0,1,1,1V38.79a1,1,0,0,1-1,1H27a1,1,0,0,1-1-1V12a1,1,0,0,1,1-1H44.33m0-.5H27A1.51,1.51,0,0,0,25.45,12V38.79A1.51,1.51,0,0,0,27,40.3H44.33a1.51,1.51,0,0,0,1.51-1.51V12a1.51,1.51,0,0,0-1.51-1.51Z"/><path class="cls-5" d="M31,26.3a4.66,4.66,0,0,1,1.62-3.57,4.59,4.59,0,0,1,3.83-1,3.81,3.81,0,0,1,2.86,2.75,3.36,3.36,0,0,1-.08,2.08,3.15,3.15,0,0,1-1.37,1.6,3.07,3.07,0,0,1-2.1.37A2.63,2.63,0,0,1,34,27.23,2.43,2.43,0,0,1,33.86,25a2.15,2.15,0,0,1,1.83-1.21,1.77,1.77,0,0,1,1.78,1.26,1.56,1.56,0,0,1-.09,1.15,1.38,1.38,0,0,1-.89.71,1.2,1.2,0,0,1-1.1-.24A1.09,1.09,0,0,1,35,25.65a.87.87,0,0,1,.83-.65.67.67,0,0,1,.68.69h-.06a.56.56,0,0,0-.62-.53.66.66,0,0,0-.59.54.8.8,0,0,0,.3.74.83.83,0,0,0,.78.11A1,1,0,0,0,37,26a1.09,1.09,0,0,0,0-.8,1.23,1.23,0,0,0-1.28-.83,1.57,1.57,0,0,0-1.33.9A1.87,1.87,0,0,0,34.48,27a2.09,2.09,0,0,0,1.35,1,2.59,2.59,0,0,0,1.76-.27,2.71,2.71,0,0,0,1.2-1.35,3,3,0,0,0,.1-1.84A3.48,3.48,0,0,0,36.34,22a4.37,4.37,0,0,0-3.65.89A4.54,4.54,0,0,0,31,26.3Z"/><path class="cls-5" d="M30.84,26.3a1.23,1.23,0,0,1,0-.28l0-.28a4.73,4.73,0,0,1,.1-.56,4.87,4.87,0,0,1,.38-1.06,4.74,4.74,0,0,1,1.43-1.71A4.61,4.61,0,0,1,37,21.73a4,4,0,0,1,2.51,3.45,3.28,3.28,0,0,1-2.44,3.39,2.83,2.83,0,0,1-2.19-.27,2.7,2.7,0,0,1-1.28-1.79,2.29,2.29,0,0,1,.59-2.11,2.19,2.19,0,0,1,2.1-.61,1.86,1.86,0,0,1,1.35,1.67,1.5,1.5,0,0,1-1.34,1.6A1.2,1.2,0,0,1,35,25.57a1,1,0,0,1,.9-.66.74.74,0,0,1,.75.78v.07h-.2v-.07a.49.49,0,0,0-.53-.46.59.59,0,0,0-.53.53.74.74,0,0,0,.37.69.83.83,0,0,0,.8,0,1,1,0,0,0,.24-1.49,1.27,1.27,0,0,0-1.57-.35A1.54,1.54,0,0,0,34.3,26,2,2,0,0,0,35,27.53a2.4,2.4,0,0,0,3.22-.33,3,3,0,0,0,.4-3.35,3.45,3.45,0,0,0-2.85-1.94,4.41,4.41,0,0,0-3.32,1.16A4.55,4.55,0,0,0,31,26.3h-.19Zm.18,0h0a4.56,4.56,0,0,1,1.43-3.24,4.43,4.43,0,0,1,3.33-1.19,3.5,3.5,0,0,1,2.89,2,3,3,0,0,1-.4,3.42,2.48,2.48,0,0,1-3.34.35A2.1,2.1,0,0,1,34.19,26a1.65,1.65,0,0,1,1-1.49,1.39,1.39,0,0,1,1.71.38,1.13,1.13,0,0,1-.27,1.68,1,1,0,0,1-.93,0,.87.87,0,0,1-.44-.82.73.73,0,0,1,.65-.66.64.64,0,0,1,.7.6l-.07-.07h.06l-.07.07a.59.59,0,0,0-.6-.61.8.8,0,0,0-.75.55,1,1,0,0,0,1.14,1.27,1.32,1.32,0,0,0,1.17-1.42A1.67,1.67,0,0,0,36.23,24a2,2,0,0,0-1.89.56,2.08,2.08,0,0,0-.52,1.92A2.47,2.47,0,0,0,35,28.1a2.6,2.6,0,0,0,2,.23,3,3,0,0,0,2.24-3.14A3.71,3.71,0,0,0,36.9,22a4.32,4.32,0,0,0-4,.67,4.43,4.43,0,0,0-1.33,1.61,4.54,4.54,0,0,0-.35,1,4.4,4.4,0,0,0-.09.52l0,.26c0,.07,0,.08-.05.15Z"/><circle class="cls-6" cx="31.66" cy="30.65" r="1.09"/><circle class="cls-6" cx="29.49" cy="22.68" r="1.09"/><circle class="cls-6" cx="40.48" cy="20.21" r="1.09"/><circle class="cls-6" cx="41.57" cy="28.34" r="1.09"/><circle class="cls-7" cx="19.21" cy="19.12" r="0.3"/><circle class="cls-6" cx="25.62" cy="42.09" r="0.3"/><line class="cls-7" x1="39.76" y1="35.91" x2="42.73" y2="34.48"/><line class="cls-7" x1="27.29" y1="14.06" x2="29.75" y2="12.52"/><line class="cls-7" x1="28.66" y1="15.98" x2="30.91" y2="14.89"/><line class="cls-7" x1="41.45" y1="38.31" x2="43.97" y2="36.89"/><line class="cls-7" x1="38.74" y1="33.17" x2="40.89" y2="32.15"/><line class="cls-7" x1="29.52" y1="18.34" x2="32.31" y2="17.07"/></g></g></g></svg>