<svg xmlns="http://www.w3.org/2000/svg" viewBox="0 0 57.33 57.33"><defs><style>.cls-1{isolation:isolate;}.cls-2,.cls-4{fill:#cbc2f6;}.cls-3,.cls-5{fill:none;}.cls-4{mix-blend-mode:multiply;}.cls-5{stroke:#b87bc8;stroke-miterlimit:10;}.cls-6{fill:#b87bc8;}.cls-7{fill:#fcbee1;}</style></defs><title>tv</title><g class="cls-1"><g id="Layer_2" data-name="Layer 2"><g id="TV"><circle class="cls-2" cx="28.66" cy="28.66" r="28.66"/><path class="cls-3" d="M13,41.17l6.25-14.1L35.14,22.2l9.8-1.4,12,12.65A28.66,28.66,0,1,0,28.66,57.33l.92,0Z"/><path class="cls-4" d="M35.14,22.2,19.2,27.07,13,41.17,29.59,57.3A28.66,28.66,0,0,0,56.92,33.45l-12-12.65Z"/><line class="cls-5" x1="24.6" y1="20.54" x2="33.61" y2="9.99"/><line class="cls-5" x1="19.55" y1="13.4" x2="24.6" y2="20.54"/><circle class="cls-6" cx="33.61" cy="9.99" r="1.54"/><circle class="cls-6" cx="19.55" cy="13.4" r="1.32"/><rect class="cls-7" x="10.76" y="19.33" width="35.8" height="22.84" rx="4" ry="4"/><rect class="cls-6" x="12.95" y="21.66" width="23.73" height="18.28" rx="4" ry="4"/><rect class="cls-6" x="39.15" y="22.62" width="5.16" height="5.93" rx="1" ry="1"/><rect class="cls-6" x="40.24" y="30.75" width="3.27" height="3.27" rx="1" ry="1"/></g></g></g></svg>