<svg xmlns="http://www.w3.org/2000/svg" viewBox="0 0 57.33 57.33"><defs><style>.cls-1{isolation:isolate;}.cls-2,.cls-4{fill:#cbc2f6;}.cls-3{fill:none;}.cls-4{mix-blend-mode:multiply;}.cls-5{fill:#b87bc8;}.cls-6{fill:#fff;}.cls-7{fill:#fcbee1;}</style></defs><title>anime</title><g class="cls-1"><g id="Layer_2" data-name="Layer 2"><g id="Manga-Anime"><circle class="cls-2" cx="28.66" cy="28.66" r="28.66"/><path class="cls-3" d="M17.3,44l6.86-4.24L35.08,22.34l4.61-10.83,17.64,17a28.71,28.71,0,1,0-25.22,28.6Z"/><path class="cls-4" d="M35.08,22.34,24.16,39.76,17.3,44,32.11,57.11A28.66,28.66,0,0,0,57.33,28.66s0-.1,0-.15l-17.64-17Z"/><path class="cls-5" d="M41.73,36.76v-.11h0c.38-4.34-1.17-9.41-1.84-12.95l-.33-1.76s3.62-5.49.11-10.43c0,0-3.08-.55-5.38,5.82-.13.29-2.44,0-2.75,0a19.28,19.28,0,0,0-3.51.23c-.78.13-2.25.78-3,.39-.59-.3-1.26-2-1.68-2.5-1.67-2.19-4.1-4.54-7.06-4.47,0,0-1,4,1.54,10.43.2.51-.73,2.47-.9,3.06-.38,1.31-.75,2.63-1.06,4a23.51,23.51,0,0,0-.7,8.11,8.58,8.58,0,0,0,2.48,5.25c-.32.63.11,0-.13.68a4.19,4.19,0,0,0-.34,1.23c0,1,1.49-.48,1.75-.61a.34.34,0,0,1,.48.09c.11.19,0,.47,0,.67s-.26,1.17,0,1.23.78-.43,1-.58l.33-.28.16-.15a1.63,1.63,0,0,1,.14-.14s.08,0,.11,0l.17.05c.53.18,1.07.35,1.62.47a19,19,0,0,0,3.44.45H27c2.29-.13,7.56-.31,7.56-.31.55-.13,1.08-.29,1.62-.47l.17-.05s.08,0,.11,0a1.62,1.62,0,0,1,.14.14l.16.15.33.28c.19.16.69.64,1,.58s.07-1,0-1.23-.16-.48,0-.67a.34.34,0,0,1,.48-.09c.26.13,1.78,1.59,1.75.61a4.19,4.19,0,0,0-.34-1.23c-.24-.67.19-.05-.13-.68a6.67,6.67,0,0,0,1.74-3.83A12.56,12.56,0,0,0,41.73,36.76Z"/><circle class="cls-6" cx="22.11" cy="25.41" r="2.69"/><circle class="cls-6" cx="36.39" cy="25.41" r="2.69"/><circle class="cls-5" cx="36.86" cy="25.19" r="1.14"/><circle class="cls-5" cx="21.87" cy="25.19" r="1.14"/><path class="cls-7" d="M39.15,39.23a.49.49,0,0,0-.75-.57.4.4,0,0,0-.14.54.54.54,0,0,0,.81.2c.42-.28,0-1-.4-.68l.27.08-.14.54L38.39,39c-.16.48.6.69.76.21Z"/><path class="cls-7" d="M21.16,39.94v-.06a.4.4,0,0,0-.5-.38h-.06a.4.4,0,0,0-.17.66l0,0a.4.4,0,0,0,.38.1l.06,0c.48-.17.27-.93-.21-.76l-.06,0,.38.1,0,0-.17.66h.06l-.5-.38v.06c0,.5.83.51.79,0Z"/><path class="cls-7" d="M37,40.58a.62.62,0,0,0-1-.74.39.39,0,0,0-.1.38.72.72,0,0,0,1.24.3c.34-.38-.22-.94-.56-.56l.08,0-.1.38-.26-.21c-.23.45.45.85.68.4Z"/><path class="cls-7" d="M37.38,38.3a.49.49,0,0,0-.75-.57.4.4,0,0,0-.14.54.54.54,0,0,0,.81.2c.42-.28,0-1-.4-.68l.27.08-.14.54-.41-.32c-.16.48.6.69.76.21Z"/><path class="cls-7" d="M23,41.36a.49.49,0,0,0-.75-.57.4.4,0,0,0-.14.54.54.54,0,0,0,.81.2c.42-.28,0-1-.4-.68l.27.08-.14.54-.41-.32c-.16.48.6.69.76.21Z"/></g></g></g></svg>