<svg xmlns="http://www.w3.org/2000/svg" viewBox="0 0 57.33 57.33"><defs><style>.cls-1{isolation:isolate;}.cls-2,.cls-4{fill:#cbc2f6;}.cls-3{fill:none;}.cls-4{mix-blend-mode:multiply;}.cls-5{fill:#fcbee1;}</style></defs><title>song</title><g class="cls-1"><g id="Layer_2" data-name="Layer 2"><g id="Musique"><circle class="cls-2" cx="28.66" cy="28.66" r="28.66"/><path class="cls-3" d="M10.17,44.15l10.32-6.48.11-19.33L41.16,10.4l16,15.19A28.66,28.66,0,1,0,25.37,57.13Z"/><path class="cls-4" d="M20.59,18.34l-.11,19.33L10.17,44.15l15.2,13a28.63,28.63,0,0,0,32-28.47,29,29,0,0,0-.17-3.08l-16-15.19Z"/><path class="cls-5" d="M41.16,10.4a.67.67,0,0,0-.51-.16L20.38,12.86a.65.65,0,0,0-.57.65v23.7a6.47,6.47,0,0,0-4.9-2.14c-3.43,0-6.21,2.47-6.21,5.52s2.78,5.52,6.21,5.52,6.21-2.47,6.21-5.52a4.77,4.77,0,0,0,0-.64.67.67,0,0,0,0-.23v-19l19-2.45V30.67a6.48,6.48,0,0,0-4.9-2.14C31.74,28.53,29,31,29,34.05s2.78,5.52,6.21,5.52,6.21-2.47,6.21-5.52c0-.06,0-.12,0-.18s0,0,0-.05V10.89a.65.65,0,0,0-.22-.49Zm0,0"/></g></g></g></svg>