<?xml version="1.0" standalone="no"?>
<!DOCTYPE svg PUBLIC "-//W3C//DTD SVG 20010904//EN"
 "http://www.w3.org/TR/2001/REC-SVG-20010904/DTD/svg10.dtd">
<svg version="1.0" xmlns="http://www.w3.org/2000/svg"
 width="639.000000pt" height="639.000000pt" viewBox="0 0 639.000000 639.000000"
 preserveAspectRatio="xMidYMid meet">
<metadata>
Created by potrace 1.11, written by Peter Selinger 2001-2013
</metadata>
<g transform="translate(0.000000,639.000000) scale(0.100000,-0.100000)"
fill="#000000" stroke="none">
<path d="M2945 6194 c-677 -69 -1245 -318 -1740 -762 -254 -228 -485 -534
-648 -860 -162 -325 -255 -643 -298 -1017 -17 -147 -14 -485 5 -644 66 -550
272 -1048 617 -1491 149 -193 391 -422 599 -569 410 -290 839 -458 1345 -527
180 -25 560 -25 740 0 506 69 935 237 1345 527 596 421 1030 1088 1175 1804
71 351 78 740 19 1095 -104 627 -447 1256 -914 1677 -449 405 -968 653 -1560
744 -104 16 -193 22 -390 24 -140 2 -273 1 -295 -1z m1840 -1499 c0 -126 -5
-192 -18 -253 -67 -309 -234 -622 -489 -914 -39 -46 -231 -243 -424 -438
l-353 -355 570 -617 c313 -340 569 -620 569 -622 0 -10 -222 -176 -230 -171
-4 2 -236 295 -515 651 l-508 645 -169 -168 -168 -168 -119 119 -120 119 -546
-551 c-301 -304 -552 -552 -558 -552 -7 0 -58 46 -114 102 l-103 103 750 750
750 750 -304 388 c-168 213 -365 462 -439 554 -132 164 -169 218 -89 131 21
-24 115 -126 207 -228 325 -357 698 -760 704 -760 3 0 386 380 851 845 719
719 846 842 855 827 6 -10 10 -89 10 -187z m-2453 44 c45 -16 84 -32 86 -33 4
-5 -247 -370 -258 -374 -5 -2 -2 23 5 55 7 32 28 131 46 221 17 89 33 162 35
162 1 0 40 -14 86 -31z m-318 -211 c42 -127 74 -233 72 -235 -2 -2 -50 49
-107 114 -57 65 -130 147 -161 182 -32 35 -58 68 -58 72 0 6 156 93 177 98 1
1 36 -103 77 -231z m-182 -225 c114 -26 206 -49 203 -51 -4 -4 -375 -49 -417
-52 -5 0 -8 34 -8 75 0 41 3 75 8 75 4 0 100 -21 214 -47z m813 -25 c-3 -40
-8 -74 -9 -75 -3 -4 -429 46 -433 51 -3 2 22 10 54 16 32 7 126 27 208 45 207
45 189 49 180 -37z m-511 -3 c3 -9 0 -15 -9 -15 -8 0 -15 7 -15 15 0 8 4 15 9
15 5 0 11 -7 15 -15z m-119 -295 c-38 -104 -72 -190 -78 -190 -8 0 -92 57
-121 81 -5 4 51 75 125 158 74 82 136 148 138 146 2 -2 -27 -90 -64 -195z"/>
</g>
</svg>
