<svg xmlns="http://www.w3.org/2000/svg" width="21.791" height="17.556" viewBox="0 0 21.791 17.556">
  <g id="ingredients" transform="translate(-354.209 -816)">
    <path id="shopping-basket-solid" d="M21.791,38.958v.605a.908.908,0,0,1-.908.908h-.3l-.988,6.915a1.816,1.816,0,0,1-1.8,1.559H4a1.816,1.816,0,0,1-1.8-1.559l-.988-6.915h-.3A.908.908,0,0,1,0,39.564v-.605a.908.908,0,0,1,.908-.908H3.456c.1-.138,11.886,0,11.886,0l-.267-.34a1.211,1.211,0,0,1,1.958-1.424l1.3,1.764h2.548A.908.908,0,0,1,21.791,38.958ZM11.8,45.617V41.38a.908.908,0,1,0-1.816,0v4.237a.908.908,0,0,0,1.816,0Zm4.237,0V41.38a.908.908,0,1,0-1.816,0v4.237a.908.908,0,0,0,1.816,0Zm-8.474,0V41.38a.908.908,0,1,0-1.816,0v4.237a.908.908,0,0,0,1.816,0Z" transform="translate(354.209 784.61)" fill="#fff"/>
    <g id="Tracé_290" data-name="Tracé 290" transform="translate(358 819)" fill="#fff">
      <path d="M 5.534027099609375 4.527172565460205 C 5.299757480621338 4.527172565460205 5.046957492828369 4.517612457275391 4.779317378997803 4.507492542266846 C 4.478707313537598 4.496122360229492 4.167867183685303 4.484372615814209 3.84374737739563 4.484372615814209 C 3.515307188034058 4.484372615814209 3.207877397537231 4.496352672576904 2.910577297210693 4.507942676544189 C 2.656987190246582 4.517832279205322 2.417457342147827 4.527172565460205 2.199557304382324 4.527172565460205 C 1.856167316436768 4.527172565460205 1.433707356452942 4.507022380828857 1.213017344474792 4.349912643432617 C 1.146297335624695 4.302402496337891 0.9432373046875 4.157842636108398 0.9432373046875 3.490232467651367 C 0.9432373046875 1.83602249622345 2.289027214050293 0.4902324974536896 3.9432373046875 0.4902324974536896 C 5.597447395324707 0.4902324974536896 6.9432373046875 1.83602249622345 6.9432373046875 3.490232467651367 C 6.9432373046875 4.323632717132568 6.666667461395264 4.527142524719238 5.534027099609375 4.527172565460205 Z" stroke="none"/>
      <path d="M 3.9432373046875 0.9902324676513672 C 2.564737319946289 0.9902324676513672 1.4432373046875 2.111732482910156 1.4432373046875 3.490232467651367 C 1.4432373046875 3.803871631622314 1.496007919311523 3.922310829162598 1.508742332458496 3.946265697479248 C 1.542459011077881 3.966073274612427 1.688032627105713 4.027172565460205 2.199557304382324 4.027172565460205 C 2.407717227935791 4.027172565460205 2.642507076263428 4.018022537231445 2.891097068786621 4.008332252502441 C 3.179107189178467 3.997102499008179 3.505557537078857 3.984372615814209 3.843747138977051 3.984372615814209 C 4.177357196807861 3.984372615814209 4.49304723739624 3.996312618255615 4.798336982727051 4.007852554321289 C 5.061077117919922 4.017792701721191 5.309247016906738 4.027172565460205 5.534037590026855 4.027172565460205 C 6.110287189483643 4.027172565460205 6.302577018737793 3.958452463150024 6.365907192230225 3.917492389678955 C 6.39113712310791 3.901182651519775 6.4432373046875 3.775272369384766 6.4432373046875 3.490232467651367 C 6.4432373046875 2.111732482910156 5.321737289428711 0.9902324676513672 3.9432373046875 0.9902324676513672 M 3.9432373046875 -0.009767532348632813 C 5.876237392425537 -0.009767532348632813 7.4432373046875 1.557242393493652 7.4432373046875 3.490232467651367 C 7.4432373046875 4.819523811340332 6.654940128326416 5.027168273925781 5.534035682678223 5.027168273925781 C 5.024968147277832 5.027168273925781 4.447455883026123 4.984372615814209 3.843747138977051 4.984372615814209 C 3.24015998840332 4.984372615814209 2.681864738464355 5.027168273925781 2.19955587387085 5.027168273925781 C 1.137269973754883 5.027168273925781 0.4432373046875 4.819642066955566 0.4432373046875 3.490232467651367 C 0.4432373046875 1.557242393493652 2.010237216949463 -0.009767532348632813 3.9432373046875 -0.009767532348632813 Z" stroke="none" fill="#fff"/>
    </g>
    <g id="Tracé_292" data-name="Tracé 292" transform="translate(368 817)" fill="#fff">
      <path d="M 2.5 6.836422920227051 C 1.366809964179993 6.836422920227051 0.5 6.664382934570313 0.5 4.500002861022949 C 0.5 3.381562948226929 0.7376999855041504 2.337742805480957 1.169309973716736 1.560842871665955 C 1.543859958648682 0.8866629004478455 2.028870105743408 0.5000028610229492 2.5 0.5000028610229492 C 2.971129894256592 0.5000028610229492 3.456140041351318 0.8866629004478455 3.830689907073975 1.560842871665955 C 4.26230001449585 2.337742805480957 4.5 3.381562948226929 4.5 4.500002861022949 C 4.5 6.664382934570313 3.633189916610718 6.836422920227051 2.5 6.836422920227051 Z" stroke="none"/>
      <path d="M 2.5 1.000002861022949 C 1.902829885482788 1.000002861022949 1 2.395942687988281 1 4.500002861022949 C 1 5.308322906494141 1.139630079269409 5.876452922821045 1.393160104751587 6.099742889404297 C 1.579020023345947 6.26343297958374 1.920380115509033 6.336422920227051 2.5 6.336422920227051 C 3.079619884490967 6.336422920227051 3.420979976654053 6.26343297958374 3.606840133666992 6.099742889404297 C 3.86037015914917 5.876452922821045 4 5.308322906494141 4 4.500002861022949 C 4 2.395942687988281 3.097169876098633 1.000002861022949 2.5 1.000002861022949 M 2.5 2.86102294921875e-06 C 3.880710124969482 2.86102294921875e-06 5 2.01472282409668 5 4.500002861022949 C 5 6.985282897949219 3.880710124969482 7.336422920227051 2.5 7.336422920227051 C 1.119290113449097 7.336422920227051 0 6.985282897949219 0 4.500002861022949 C 0 2.01472282409668 1.119290113449097 2.86102294921875e-06 2.5 2.86102294921875e-06 Z" stroke="none" fill="#fff"/>
    </g>
    <g id="Rectangle_1111" data-name="Rectangle 1111" transform="translate(368 816)" fill="#fff" stroke="#fff" stroke-width="1">
      <rect width="5" height="2" rx="1" stroke="none"/>
      <rect x="0.5" y="0.5" width="4" height="1" rx="0.5" fill="none"/>
    </g>
    <line id="Ligne_32" data-name="Ligne 32" x2="7" y2="6" transform="translate(362.5 817.5)" fill="none" stroke="#fff" stroke-linecap="round" stroke-width="2"/>
  </g>
</svg>
