<svg xmlns="http://www.w3.org/2000/svg" width="7.438" height="19.895" viewBox="0 0 7.438 19.895">
  <g id="news" transform="translate(-359.961 -690.255)">
    <path id="Tracé_289" data-name="Tracé 289" d="M5.169,19.05H1.908L1.347,5.83l5.11.092Zm-3.8,4.131A2.018,2.018,0,0,1,2,21.686a2.116,2.116,0,0,1,1.535-.625,2.181,2.181,0,0,1,1.522.6,1.914,1.914,0,0,1,.652,1.467,2.018,2.018,0,0,1-.639,1.495,2.116,2.116,0,0,1-1.535.625,2.146,2.146,0,0,1-.829-.163,2.364,2.364,0,0,1-.693-.435A2.02,2.02,0,0,1,1.541,24,1.912,1.912,0,0,1,1.365,23.181Z" transform="translate(361.702 684.305) rotate(7)" fill="#fff"/>
  </g>
</svg>
