<svg xmlns="http://www.w3.org/2000/svg" viewBox="0 0 57.33 57.33"><defs><style>.cls-1{isolation:isolate;}.cls-2,.cls-3{fill:#cbc2f6;}.cls-3,.cls-5{mix-blend-mode:multiply;}.cls-4{fill:#fcbee1;}.cls-5,.cls-6{fill:none;}.cls-5{stroke:#fcbee1;stroke-miterlimit:10;stroke-width:0.25px;}.cls-6{stroke:#ae7cb5;stroke-linecap:round;stroke-linejoin:round;stroke-width:0.75px;}</style></defs><title>livres</title><g class="cls-1"><g id="Layer_2" data-name="Layer 2"><g id="Livres"><circle class="cls-2" cx="28.66" cy="28.66" r="28.66"/><path class="cls-3" d="M35.08,22.34,24.16,39.76,7.41,43.67,23.08,56.78A28.67,28.67,0,0,0,57.33,28.66a29,29,0,0,0-.16-3l-9.33-9.14Z"/><path class="cls-4" d="M28.76,41.94m-1.21,2.67s1.65-1.51,2.17-1.92a8.51,8.51,0,0,1,4.52-1.74c4.33-.33,8.29,2.64,12.63,2.85a.94.94,0,0,0,.83-.25,1,1,0,0,0,.12-.58V17.58a1.34,1.34,0,0,0-.19-.85,1.34,1.34,0,0,0-.69-.37l-3-.9c-2-.6-4-1.2-6-1.61a14,14,0,0,0-5.87-.17,6.58,6.58,0,0,0-4.59,3.41c-1-2.2-3.44-3.44-5.85-3.65a20.48,20.48,0,0,0-7.11,1.07L8.7,16.11a2.23,2.23,0,0,0-1,.44,2.25,2.25,0,0,0-.47,1.69l0,24.89a.84.84,0,0,0,.12.54.83.83,0,0,0,.75.18c3-.32,5.75-1.64,8.66-2.36s6.35-.69,8.93,1.48Z"/><path class="cls-5" d="M27.55,45.27"/><path class="cls-5" d="M27.55,17.07"/><path class="cls-6" d="M29.91,23.44s2.37-4.3,15.29,0"/><path class="cls-6" d="M29.91,26.93s2.37-4.3,15.29,0"/><path class="cls-6" d="M29.91,30.42s2.37-4.3,15.29,0"/><path class="cls-6" d="M29.91,33.91s2.37-4.3,15.29,0"/><path class="cls-6" d="M29.91,37.4s1.37-2.72,7.45-1.82"/><path class="cls-6" d="M29.91,20s2.37-4.3,15.29,0"/></g></g></g></svg>