<svg xmlns="http://www.w3.org/2000/svg" viewBox="0 0 34.351 35.06">
  <defs>
    <style>
      .cls-1 {
        fill: #fcbee1;
      }

      .cls-2 {
        fill: #b87bc8;
      }

      .cls-3 {
        fill: none;
        stroke: #b87bc8;
        stroke-miterlimit: 10;
        stroke-width: 0.5px;
      }
    </style>
  </defs>
  <g id="Cartes_à_jouer" data-name="Cartes à jouer" transform="translate(-11.489 -10.49)">
    <path id="Tracé_252" data-name="Tracé 252" class="cls-1" d="M30.36,15.76H13a1.51,1.51,0,0,0-1.51,1.51V44A1.51,1.51,0,0,0,13,45.55H30.36A1.51,1.51,0,0,0,31.87,44V17.27A1.51,1.51,0,0,0,30.36,15.76Z"/>
    <circle id="Ellipse_268" data-name="Ellipse 268" class="cls-2" cx="6.59" cy="6.59" r="6.59" transform="translate(15.09 24.06)"/>
    <circle id="Ellipse_269" data-name="Ellipse 269" class="cls-2" cx="5.24" cy="5.24" r="5.24" transform="translate(16.44 25.41)"/>
    <path id="Tracé_253" data-name="Tracé 253" class="cls-2" d="M23.83,24.43l1.79-1.41-.25,2.18-.92.21Z"/>
    <path id="Tracé_254" data-name="Tracé 254" class="cls-2" d="M16.86,35.14l-.42,1.93,1.92-.96-.63-.97Z"/>
    <path id="Tracé_255" data-name="Tracé 255" class="cls-2" d="M15.89,27.5l-1.34-2.89,3.67.8-1.95,2.31Z"/>
    <path id="Tracé_256" data-name="Tracé 256" class="cls-2" d="M30.36,16.26a1,1,0,0,1,1,1V44a1,1,0,0,1-1,1H13a1,1,0,0,1-1-1V17.27a1,1,0,0,1,1-1H30.36m0-.5H13a1.51,1.51,0,0,0-1.51,1.51V44A1.51,1.51,0,0,0,13,45.55H30.36A1.51,1.51,0,0,0,31.87,44V17.27a1.51,1.51,0,0,0-1.51-1.51Z"/>
    <path id="Tracé_257" data-name="Tracé 257" class="cls-2" d="M25.62,41.19a.9.9,0,1,1-.9.9.9.9,0,0,1,.9-.9m0-.5a1.4,1.4,0,1,0,1.4,1.4,1.4,1.4,0,0,0-1.4-1.4Z"/>
    <path id="Tracé_258" data-name="Tracé 258" class="cls-2" d="M29.4,39.48a.47.47,0,1,1-.47.47.47.47,0,0,1,.47-.47m0-.38a.85.85,0,1,0,.85.85.85.85,0,0,0-.85-.85Z"/>
    <path id="Tracé_259" data-name="Tracé 259" class="cls-2" d="M19.21,18.24a.9.9,0,1,1-.9.9.9.9,0,0,1,.9-.9m0-.5a1.4,1.4,0,1,0,1.4,1.4A1.4,1.4,0,0,0,19.21,17.74Z"/>
    <path id="Tracé_260" data-name="Tracé 260" class="cls-2" d="M14.55,18.67a.47.47,0,1,1-.47.47.47.47,0,0,1,.47-.47m0-.38a.85.85,0,1,0,.85.85.85.85,0,0,0-.85-.85Z"/>
    <path id="Tracé_261" data-name="Tracé 261" class="cls-1" d="M17.52,31.4a4.08,4.08,0,0,1,1.42-3.13,4,4,0,0,1,3.35-.91,3.34,3.34,0,0,1,2.5,2.41,2.94,2.94,0,0,1-.07,1.82,2.76,2.76,0,0,1-1.2,1.4,2.69,2.69,0,0,1-1.84.32,2.3,2.3,0,0,1-1.53-1.12,2.13,2.13,0,0,1-.1-1.92,1.89,1.89,0,0,1,1.61-1.06,1.55,1.55,0,0,1,1.56,1.1,1.37,1.37,0,0,1-.08,1,1.2,1.2,0,0,1-.78.62.994.994,0,0,1-1.3-1.13.76.76,0,0,1,.73-.57.58.58,0,0,1,.6.61h-.05a.49.49,0,0,0-.54-.46.58.58,0,0,0-.51.48.7.7,0,0,0,.26.65.72.72,0,0,0,.68.1.88.88,0,0,0,.52-.46,1,1,0,0,0,0-.7,1.08,1.08,0,0,0-1.12-.73,1.37,1.37,0,0,0-1.16.79A1.64,1.64,0,0,0,20.6,32a1.83,1.83,0,0,0,1.19.92,2.27,2.27,0,0,0,1.54-.24,2.38,2.38,0,0,0,1.06-1.18,2.6,2.6,0,0,0,.09-1.61,3,3,0,0,0-2.24-2.24,3.83,3.83,0,0,0-3.2.78,4,4,0,0,0-1.46,3Z"/>
    <path id="Tracé_262" data-name="Tracé 262" class="cls-1" d="M44.33,10.51H27A1.51,1.51,0,0,0,25.45,12V38.79A1.51,1.51,0,0,0,27,40.3H44.33a1.51,1.51,0,0,0,1.51-1.51V12a1.51,1.51,0,0,0-1.51-1.51Z"/>
    <line id="Ligne_18" data-name="Ligne 18" class="cls-3" x2="17.31" y2="29.29" transform="translate(26.91 10.79)"/>
    <circle id="Ellipse_270" data-name="Ellipse 270" class="cls-2" cx="6.59" cy="6.59" r="6.59" transform="translate(29.06 18.82)"/>
    <circle id="Ellipse_271" data-name="Ellipse 271" class="cls-2" cx="5.24" cy="5.24" r="5.24" transform="translate(30.41 20.17)"/>
    <path id="Tracé_263" data-name="Tracé 263" class="cls-2" d="M44.33,11a1,1,0,0,1,1,1V38.79a1,1,0,0,1-1,1H27a1,1,0,0,1-1-1V12a1,1,0,0,1,1-1H44.33m0-.5H27A1.51,1.51,0,0,0,25.45,12V38.79A1.51,1.51,0,0,0,27,40.3H44.33a1.51,1.51,0,0,0,1.51-1.51V12a1.51,1.51,0,0,0-1.51-1.51Z"/>
    <path id="Tracé_264" data-name="Tracé 264" class="cls-1" d="M31,26.3a4.66,4.66,0,0,1,1.62-3.57,4.59,4.59,0,0,1,3.83-1,3.81,3.81,0,0,1,2.86,2.75,3.36,3.36,0,0,1-.08,2.08,3.15,3.15,0,0,1-1.37,1.6,3.07,3.07,0,0,1-2.1.37A2.63,2.63,0,0,1,34,27.23,2.43,2.43,0,0,1,33.86,25a2.15,2.15,0,0,1,1.83-1.21,1.77,1.77,0,0,1,1.78,1.26,1.56,1.56,0,0,1-.09,1.15,1.38,1.38,0,0,1-.89.71,1.2,1.2,0,0,1-1.1-.24A1.09,1.09,0,0,1,35,25.65a.87.87,0,0,1,.83-.65.67.67,0,0,1,.68.69h-.06a.56.56,0,0,0-.62-.53.66.66,0,0,0-.59.54.8.8,0,0,0,.3.74.83.83,0,0,0,.78.11A1,1,0,0,0,37,26a1.09,1.09,0,0,0,0-.8,1.23,1.23,0,0,0-1.28-.83,1.57,1.57,0,0,0-1.33.9A1.87,1.87,0,0,0,34.48,27a2.09,2.09,0,0,0,1.35,1,2.59,2.59,0,0,0,1.76-.27,2.71,2.71,0,0,0,1.2-1.35,3,3,0,0,0,.1-1.84A3.48,3.48,0,0,0,36.34,22a4.37,4.37,0,0,0-3.65.89A4.54,4.54,0,0,0,31,26.3Z"/>
    <path id="Tracé_265" data-name="Tracé 265" class="cls-1" d="M30.84,26.3a1.23,1.23,0,0,1,0-.28v-.28a4.729,4.729,0,0,1,.1-.56,4.87,4.87,0,0,1,.38-1.06,4.74,4.74,0,0,1,1.43-1.71A4.61,4.61,0,0,1,37,21.73a4,4,0,0,1,2.51,3.45,3.28,3.28,0,0,1-2.44,3.39,2.83,2.83,0,0,1-2.19-.27,2.7,2.7,0,0,1-1.28-1.79,2.29,2.29,0,0,1,.59-2.11,2.19,2.19,0,0,1,2.1-.61,1.86,1.86,0,0,1,1.35,1.67,1.5,1.5,0,0,1-1.34,1.6A1.2,1.2,0,0,1,35,25.57a1,1,0,0,1,.9-.66.74.74,0,0,1,.75.78v.07h-.2v-.07a.49.49,0,0,0-.53-.46.59.59,0,0,0-.53.53.74.74,0,0,0,.37.69.83.83,0,0,0,.8,0,1,1,0,0,0,.24-1.49,1.27,1.27,0,0,0-1.57-.35A1.54,1.54,0,0,0,34.3,26a2,2,0,0,0,.7,1.53,2.4,2.4,0,0,0,3.22-.33,3,3,0,0,0,.4-3.35,3.45,3.45,0,0,0-2.85-1.94,4.41,4.41,0,0,0-3.32,1.16A4.55,4.55,0,0,0,31,26.3h-.19Zm.18,0h0a4.56,4.56,0,0,1,1.43-3.24,4.43,4.43,0,0,1,3.33-1.19,3.5,3.5,0,0,1,2.89,2,3,3,0,0,1-.4,3.42,2.48,2.48,0,0,1-3.34.35A2.1,2.1,0,0,1,34.19,26a1.65,1.65,0,0,1,1-1.49,1.39,1.39,0,0,1,1.71.38,1.13,1.13,0,0,1-.27,1.68,1,1,0,0,1-.93,0,.87.87,0,0,1-.44-.82.73.73,0,0,1,.65-.66.64.64,0,0,1,.7.6l-.07-.07h.06l-.07.07a.59.59,0,0,0-.6-.61.8.8,0,0,0-.75.55,1,1,0,0,0,1.14,1.27,1.32,1.32,0,0,0,1.17-1.42A1.67,1.67,0,0,0,36.23,24a2,2,0,0,0-1.89.56,2.08,2.08,0,0,0-.52,1.92A2.47,2.47,0,0,0,35,28.1a2.6,2.6,0,0,0,2,.23,3,3,0,0,0,2.24-3.14A3.71,3.71,0,0,0,36.9,22a4.32,4.32,0,0,0-4,.67,4.43,4.43,0,0,0-1.33,1.61,4.54,4.54,0,0,0-.35,1,4.4,4.4,0,0,0-.09.52v.26a.184.184,0,0,1-.05.15Z"/>
    <circle id="Ellipse_272" data-name="Ellipse 272" class="cls-2" cx="1.09" cy="1.09" r="1.09" transform="translate(30.57 29.56)"/>
    <circle id="Ellipse_273" data-name="Ellipse 273" class="cls-2" cx="1.09" cy="1.09" r="1.09" transform="translate(28.4 21.59)"/>
    <circle id="Ellipse_274" data-name="Ellipse 274" class="cls-2" cx="1.09" cy="1.09" r="1.09" transform="translate(39.39 19.12)"/>
    <circle id="Ellipse_275" data-name="Ellipse 275" class="cls-2" cx="1.09" cy="1.09" r="1.09" transform="translate(40.48 27.25)"/>
    <circle id="Ellipse_276" data-name="Ellipse 276" class="cls-3" cx="0.3" cy="0.3" r="0.3" transform="translate(18.91 18.82)"/>
    <circle id="Ellipse_277" data-name="Ellipse 277" class="cls-2" cx="0.3" cy="0.3" r="0.3" transform="translate(25.32 41.79)"/>
    <line id="Ligne_19" data-name="Ligne 19" class="cls-3" y1="1.43" x2="2.97" transform="translate(39.76 34.48)"/>
    <line id="Ligne_20" data-name="Ligne 20" class="cls-3" y1="1.54" x2="2.46" transform="translate(27.29 12.52)"/>
    <line id="Ligne_21" data-name="Ligne 21" class="cls-3" y1="1.09" x2="2.25" transform="translate(28.66 14.89)"/>
    <line id="Ligne_22" data-name="Ligne 22" class="cls-3" y1="1.42" x2="2.52" transform="translate(41.45 36.89)"/>
    <line id="Ligne_23" data-name="Ligne 23" class="cls-3" y1="1.02" x2="2.15" transform="translate(38.74 32.15)"/>
    <line id="Ligne_24" data-name="Ligne 24" class="cls-3" y1="1.27" x2="2.79" transform="translate(29.52 17.07)"/>
  </g>
</svg>
