<svg xmlns="http://www.w3.org/2000/svg" viewBox="0 0 32.72 35.874">
  <defs>
    <style>
      .cls-1 {
        fill: #fcbee1;
      }
    </style>
  </defs>
  <g id="Musique" transform="translate(-8.7 -10.236)">
    <path id="Tracé_283" data-name="Tracé 283" class="cls-1" d="M41.16,10.4a.67.67,0,0,0-.51-.16L20.38,12.86a.65.65,0,0,0-.57.65v23.7a6.47,6.47,0,0,0-4.9-2.14c-3.43,0-6.21,2.47-6.21,5.52s2.78,5.52,6.21,5.52,6.21-2.47,6.21-5.52a4.77,4.77,0,0,0,0-.64.67.67,0,0,0,0-.23v-19l19-2.45v12.4a6.48,6.48,0,0,0-4.9-2.14C31.74,28.53,29,31,29,34.05s2.78,5.52,6.21,5.52,6.21-2.47,6.21-5.52V10.89a.65.65,0,0,0-.22-.49Zm0,0"/>
  </g>
</svg>
