<svg xmlns="http://www.w3.org/2000/svg" viewBox="0 0 57.33 57.33"><defs><style>.cls-1{isolation:isolate;}.cls-2,.cls-4{fill:#cbc2f6;}.cls-3{fill:none;}.cls-4{mix-blend-mode:multiply;}.cls-5{fill:#b87bc8;}.cls-6{fill:#fcbee1;}</style></defs><title>games</title><g class="cls-1"><g id="Layer_2" data-name="Layer 2"><g id="Jeux_video" data-name="Jeux video"><circle class="cls-2" cx="28.66" cy="28.66" r="28.66"/><path class="cls-3" d="M10.75,41.37l5-17,18.89-5.77,7.25-2L57.21,31.15c.07-.82.11-1.65.11-2.49A28.66,28.66,0,1,0,26.72,57.26Z"/><path class="cls-4" d="M34.59,18.62,15.7,24.39l-5,17,16,15.89c.64,0,1.29.07,1.95.07A28.66,28.66,0,0,0,57.21,31.15L41.84,16.64Z"/><rect class="cls-5" x="14.66" y="19.6" width="29.82" height="11.7"/><path class="cls-6" d="M45.09,20.11c-5.28-8.68-13.24-2.64-13.24-2.64a4.15,4.15,0,0,1-2.12.71H27.6a4.06,4.06,0,0,1-2.11-.71s-8-6-13.25,2.64A26.79,26.79,0,0,0,9.09,38.23c.37,2.31,1.6,3.86,3.92,3.66s7.33-6.23,7.33-6.23a2.87,2.87,0,0,1,1.93-.9H35.06a2.85,2.85,0,0,1,1.93.91s5,6,7.34,6.23,3.55-1.35,3.92-3.66a26.78,26.78,0,0,0-3.15-18.13ZM23.86,27.17H21.12v2.64a2.56,2.56,0,0,1-1.48.43,1.78,1.78,0,0,1-1.3-.48V27.17H15.75A2.07,2.07,0,0,1,15.34,26a2.74,2.74,0,0,1,.36-1.58h2.74V21.65a3,3,0,0,1,1.38-.28,3.62,3.62,0,0,1,1.41.33v2.69H23.8a2.56,2.56,0,0,1,.49,1.28,3.24,3.24,0,0,1-.43,1.5Zm12.57,3A2.17,2.17,0,1,1,38.6,28a2.16,2.16,0,0,1-2.17,2.17Zm0-6A2.17,2.17,0,1,1,38.6,22a2.16,2.16,0,0,1-2.17,2.17Zm5.4,3.21A2.17,2.17,0,1,1,44,25.24a2.17,2.17,0,0,1-2.17,2.17Zm0,0"/></g></g></g></svg>