<?xml version="1.0" encoding="utf-8"?>
<!-- Generator: Adobe Illustrator 19.0.0, SVG Export Plug-In . SVG Version: 6.00 Build 0)  -->
<svg version="1.1" baseProfile="tiny" id="Calque_1"
	 xmlns="http://www.w3.org/2000/svg" xmlns:xlink="http://www.w3.org/1999/xlink" x="0px" y="0px" viewBox="0 0 167.7 148.5"
	 xml:space="preserve">
<circle id="XMLID_175_" fill="none" stroke="#7F5FBF" stroke-width="7" stroke-miterlimit="10" cx="51.7" cy="127.2" r="17.9"/>
<circle id="XMLID_174_" fill="#7F5FBF" cx="51.7" cy="127.2" r="10"/>
<circle id="XMLID_173_" fill="none" stroke="#7F5FBF" stroke-width="7" stroke-miterlimit="10" cx="115" cy="127.2" r="17.9"/>
<circle id="XMLID_172_" fill="#7F5FBF" cx="115" cy="127.2" r="10"/>
<circle id="XMLID_171_" fill="none" stroke="#7F5FBF" stroke-width="7" stroke-miterlimit="10" cx="84.4" cy="76.1" r="17.3"/>
<circle id="XMLID_170_" fill="#7F5FBF" cx="84.4" cy="76.1" r="10"/>
<circle id="XMLID_163_" fill="none" stroke="#7F5FBF" stroke-width="7" stroke-miterlimit="10" cx="84" cy="75.7" r="17.9"/>
<circle id="XMLID_162_" fill="#7F5FBF" cx="84" cy="75.7" r="10"/>
<circle id="XMLID_159_" fill="none" stroke="#7F5FBF" stroke-width="7" stroke-miterlimit="10" cx="143.4" cy="75.9" r="17.9"/>
<circle id="XMLID_3_" fill="none" stroke="#7F5FBF" stroke-width="7" stroke-miterlimit="10" cx="24.8" cy="75.4" r="17.9"/>
<line id="XMLID_152_" fill="none" stroke="#7F5FBF" stroke-width="7" stroke-miterlimit="10" x1="50.7" y1="127.5" x2="114.7" y2="127.5"/>
<circle id="XMLID_1_" fill="#7F5FBF" cx="24.4" cy="75.7" r="10"/>
<circle id="XMLID_2_" fill="#7F5FBF" cx="143.5" cy="75.7" r="10"/>
<line id="XMLID_153_" fill="none" stroke="#7F5FBF" stroke-width="7" stroke-miterlimit="10" x1="24.7" y1="76.5" x2="83.7" y2="76.5"/>
<line id="XMLID_154_" fill="none" stroke="#7F5FBF" stroke-width="7" stroke-miterlimit="10" x1="83.7" y1="75.5" x2="142.7" y2="75.5"/>
<circle id="XMLID_158_" fill="none" stroke="#7F5FBF" stroke-width="7" stroke-miterlimit="10" cx="51.7" cy="22.9" r="17.9"/>
<circle id="XMLID_157_" fill="#7F5FBF" cx="51.7" cy="22.9" r="10"/>
<circle id="XMLID_156_" fill="none" stroke="#7F5FBF" stroke-width="7" stroke-miterlimit="10" cx="115" cy="22.9" r="17.9"/>
<circle id="XMLID_155_" fill="#7F5FBF" cx="115" cy="22.9" r="10"/>
<line id="XMLID_151_" fill="none" stroke="#7F5FBF" stroke-width="7" stroke-miterlimit="10" x1="50.7" y1="22.5" x2="114.7" y2="22.5"/>
<line id="XMLID_160_" fill="none" stroke="#7F5FBF" stroke-width="7" stroke-miterlimit="10" x1="51.7" y1="22.9" x2="23.9" y2="76.5"/>
<line id="XMLID_161_" fill="none" stroke="#7F5FBF" stroke-width="7" stroke-miterlimit="10" x1="23.9" y1="76.5" x2="51.7" y2="127.1"/>
<line id="XMLID_164_" fill="none" stroke="#7F5FBF" stroke-width="7" stroke-miterlimit="10" x1="115" y1="127.2" x2="143.4" y2="76.1"/>
<line id="XMLID_165_" fill="none" stroke="#7F5FBF" stroke-width="7" stroke-miterlimit="10" x1="143.4" y1="76.1" x2="115" y2="22.9"/>
</svg>
