<svg xmlns="http://www.w3.org/2000/svg" viewBox="0 0 21.481 27.574">
  <defs>
    <style>
      .cls-1 {
        fill: #b87bc8;
      }

      .cls-2 {
        fill: #fff;
      }

      .cls-3 {
        fill: #fcbee1;
      }
    </style>
  </defs>
  <g id="Manga-Anime" transform="translate(-12.2 -8.908)">
    <path id="Tracé_239" data-name="Tracé 239" class="cls-1" d="M36.513,31.713v-.088h0c.306-3.49-.941-7.568-1.48-10.415l-.265-1.415s2.911-4.415.088-8.388c0,0-2.477-.442-4.327,4.681-.1.233-1.962,0-2.212,0a15.506,15.506,0,0,0-2.823.185c-.627.1-1.81.627-2.413.314-.475-.241-1.013-1.608-1.351-2.011-1.343-1.761-3.3-3.651-5.678-3.595,0,0-.8,3.217,1.239,8.388.161.41-.587,1.986-.724,2.461-.306,1.054-.6,2.115-.852,3.217a18.908,18.908,0,0,0-.563,6.522,6.9,6.9,0,0,0,1.995,4.222c-.257.507.088,0-.1.547a3.37,3.37,0,0,0-.273.989c0,.8,1.2-.386,1.407-.491a.273.273,0,0,1,.386.072c.088.153,0,.378,0,.539s-.209.941,0,.989.627-.346.8-.466l.265-.225.129-.121a1.312,1.312,0,0,1,.113-.113h.088l.137.04a12.08,12.08,0,0,0,1.3.378,15.28,15.28,0,0,0,2.767.362h.5c1.842-.1,6.08-.249,6.08-.249.442-.1.869-.233,1.3-.378l.137-.04h.088a1.3,1.3,0,0,1,.113.113l.129.121.265.225c.153.129.555.515.8.466s.056-.8,0-.989-.129-.386,0-.539a.273.273,0,0,1,.386-.072c.209.1,1.432,1.279,1.407.491a3.37,3.37,0,0,0-.273-.989c-.193-.539.153-.04-.1-.547a5.364,5.364,0,0,0,1.4-3.08,10.1,10.1,0,0,0,.113-1.11Z" transform="translate(-2.879 -2.07)"/>
    <circle id="Ellipse_257" data-name="Ellipse 257" class="cls-2" cx="2.163" cy="2.163" r="2.163" transform="translate(15.691 18.351)"/>
    <circle id="Ellipse_258" data-name="Ellipse 258" class="cls-2" cx="2.163" cy="2.163" r="2.163" transform="translate(27.175 18.351)"/>
    <circle id="Ellipse_259" data-name="Ellipse 259" class="cls-1" cx="0.917" cy="0.917" r="0.917" transform="translate(28.8 19.421)"/>
    <circle id="Ellipse_260" data-name="Ellipse 260" class="cls-1" cx="0.917" cy="0.917" r="0.917" transform="translate(16.744 19.421)"/>
    <path id="Tracé_240" data-name="Tracé 240" class="cls-3" d="M38.965,39.1a.394.394,0,0,0-.6-.458.322.322,0,0,0-.113.434.434.434,0,0,0,.651.161c.338-.225,0-.8-.322-.547l.217.064-.113.434-.33-.273c-.129.386.483.555.611.169Z" transform="translate(-7.407 -7.47)"/>
    <path id="Tracé_241" data-name="Tracé 241" class="cls-3" d="M21,39.849V39.8a.322.322,0,0,0-.4-.306h-.048a.322.322,0,0,0-.137.531h0a.322.322,0,0,0,.306.08h.048c.386-.137.217-.748-.169-.611h-.048l.306.08h0l-.137.531h.048l-.4-.306v.048c0,.4.668.41.635,0Z" transform="translate(-3.905 -7.649)"/>
    <path id="Tracé_242" data-name="Tracé 242" class="cls-3" d="M36.782,40.386a.5.5,0,1,0-.8-.6.314.314,0,0,0-.08.306.579.579,0,0,0,1,.241c.273-.306-.177-.756-.45-.45h.064l-.08.306-.209-.169c-.185.362.362.684.547.322Z" transform="translate(-6.953 -7.671)"/>
    <path id="Tracé_243" data-name="Tracé 243" class="cls-3" d="M37.2,38.169a.394.394,0,0,0-.6-.458.322.322,0,0,0-.113.434.434.434,0,0,0,.651.161c.338-.225,0-.8-.322-.547l.217.064-.113.434L36.584,38C36.456,38.386,37.067,38.555,37.2,38.169Z" transform="translate(-7.061 -7.288)"/>
    <path id="Tracé_244" data-name="Tracé 244" class="cls-3" d="M22.815,41.229a.394.394,0,0,0-.6-.458.322.322,0,0,0-.113.434.434.434,0,0,0,.651.161c.338-.225,0-.8-.322-.547l.217.064-.113.434-.33-.257c-.129.386.483.555.611.169Z" transform="translate(-4.245 -7.887)"/>
  </g>
</svg>
