<svg xmlns="http://www.w3.org/2000/svg" viewBox="0 0 27.5 22">
  <defs>
    <style>
      .cls-1 {
        fill: #7f5fbf;
      }
    </style>
  </defs>
  <g id="dice-solid" transform="translate(-860 -129)">
    <path id="dice-solid-2" data-name="dice-solid" class="cls-1" d="M25.438,8.25h-5.1a3.484,3.484,0,0,1-.73,3.838L13.75,17.943v1.995A2.062,2.062,0,0,0,15.813,22h9.625A2.062,2.062,0,0,0,27.5,19.938V10.313A2.062,2.062,0,0,0,25.438,8.25Zm-4.812,7.906a1.031,1.031,0,1,1,1.031-1.031A1.032,1.032,0,0,1,20.625,16.156ZM18.633,8.134,11.116.617a2.108,2.108,0,0,0-2.982,0L.617,8.134a2.108,2.108,0,0,0,0,2.982l7.517,7.517a2.108,2.108,0,0,0,2.982,0l7.517-7.517a2.109,2.109,0,0,0,0-2.982ZM4.125,10.656A1.031,1.031,0,1,1,5.156,9.625,1.032,1.032,0,0,1,4.125,10.656Zm5.5,5.5a1.031,1.031,0,1,1,1.031-1.031A1.032,1.032,0,0,1,9.625,16.156Zm0-5.5a1.031,1.031,0,1,1,1.031-1.031A1.032,1.032,0,0,1,9.625,10.656Zm0-5.5a1.031,1.031,0,1,1,1.031-1.031A1.032,1.032,0,0,1,9.625,5.156Zm5.5,5.5a1.031,1.031,0,1,1,1.031-1.031A1.032,1.032,0,0,1,15.125,10.656Z" transform="translate(860 129)"/>
  </g>
</svg>
